<?xml version="1.0" standalone="no"?><!DOCTYPE svg PUBLIC "-//W3C//DTD SVG 20010904//EN" "http://www.w3.org/TR/2001/REC-SVG-20010904/DTD/svg10.dtd"><svg version="1.0" xmlns="http://www.w3.org/2000/svg" width="700.000000pt" height="700.000000pt" viewBox="0 0 700.000000 700.000000" preserveAspectRatio="xMidYMid meet"><g transform="translate(0.000000,700.000000) scale(0.100000,-0.100000)" fill="#000000" stroke="none"><path d="M5560 6978 c-14 -7 -38 -24 -54 -38 -90 -80 -76 -228 29 -302 33 -23 55 -30 110 -33 208 -14 308 -37 440 -103 197 -98 337 -243 429 -444 52 -113 78 -233 91 -417 5 -78 35 -129 98 -166 104 -60 221 -24 269 83 28 62 22 214 -17 403 -2 14 -19 68 -36 120 -142 433 -504 766 -942 869 -129 30 -135 31 -267 36 -88 3 -132 0 -150 -8z"/> <path d="M2627 6689 c-138 -33 -279 -163 -308 -284 -7 -27 -25 -77 -40 -110 -16 -33 -33 -80 -38 -104 -15 -67 -7 -179 17 -245 26 -72 25 -71 -73 74 -92 135 -132 181 -200 225 -103 66 -188 78 -299 43 -133 -43 -243 -147 -275 -258 -7 -25 -26 -65 -41 -90 -73 -114 -92 -223 -60 -330 21 -70 29 -86 102 -192 59 -89 66 -106 25 -67 -34 33 -136 77 -194 84 -61 7 -157 -14 -212 -47 -130 -78 -194 -163 -217 -287 -3 -13 -13 -40 -23 -60 -37 -72 -50 -139 -47 -234 4 -128 26 -177 180 -407 182 -271 174 -258 150 -240 -10 8 -21 17 -24 20 -8 9 -93 48 -125 58 -43 13 -144 6 -196 -14 -109 -44 -208 -131 -250 -220 -31 -68 -32 -195 -2 -276 18 -48 90 -172 123 -211 9 -11 218 -314 421 -612 72 -105 270 -394 354 -517 28 -40 115 -167 194 -283 134 -195 183 -267 364 -530 37 -55 94 -138 125 -185 31 -47 60 -87 63 -90 3 -3 39 -54 79 -115 229 -344 447 -569 725 -750 321 -209 642 -323 1050 -374 75 -10 444 -7 510 4 89 14 302 55 335 65 19 6 42 13 50 15 96 23 296 105 430 177 587 311 1001 843 1175 1508 16 61 46 235 52 298 15 155 8 495 -12 607 -26 142 -30 160 -55 257 -30 117 -95 286 -162 428 -207 431 -278 615 -587 1535 -71 209 -148 439 -173 510 -48 143 -96 226 -162 279 -56 45 -77 55 -151 71 -155 32 -369 -62 -429 -190 -54 -112 -53 -191 2 -460 23 -110 43 -211 46 -225 25 -130 18 -94 116 -585 46 -225 83 -420 84 -432 1 -16 -18 -36 -73 -77 l-74 -55 -56 79 c-117 166 -338 487 -736 1070 -85 124 -157 230 -162 235 -4 6 -46 66 -92 135 -47 69 -89 127 -93 128 -4 2 -8 7 -8 12 0 4 -57 91 -126 191 -70 101 -174 254 -232 339 -59 85 -134 196 -168 245 -35 50 -97 141 -139 202 -83 121 -116 158 -182 204 -79 55 -192 79 -276 58z"/><path d="M4580 6588 c-91 -47 -130 -155 -90 -246 23 -52 42 -72 90 -97 34 -17 47 -20 195 -30 241 -17 484 -103 715 -252 47 -31 87 -58 90 -62 3 -3 28 -24 55 -46 50 -39 163 -151 220 -216 85 -97 222 -326 266 -444 67 -180 87 -283 103 -533 4 -68 46 -138 100 -166 87 -44 194 -17 251 63 30 42 30 45 30 169 0 70 -4 152 -8 182 -4 30 -9 69 -12 85 -14 109 -65 299 -111 418 -145 376 -412 700 -754 913 -131 82 -391 193 -512 218 -246 52 -262 54 -443 62 -133 5 -142 4 -185 -18z"/><path d="M518 2516 c-52 -19 -92 -54 -117 -104 -19 -39 -20 -54 -16 -188 2 -81 7 -154 9 -163 3 -9 7 -36 10 -61 3 -25 10 -70 16 -100 6 -30 14 -66 16 -80 3 -14 19 -72 35 -130 83 -287 239 -556 442 -760 108 -109 141 -136 258 -215 300 -203 652 -313 1057 -331 117 -5 135 -4 177 15 70 31 108 82 120 163 13 84 -49 176 -133 197 -20 5 -77 11 -127 14 -290 17 -600 146 -860 357 -112 92 -201 184 -320 331 -48 60 -121 182 -168 280 -94 195 -141 375 -146 557 -1 41 -9 92 -18 113 -19 48 -71 95 -120 108 -48 14 -69 13 -115 -3z"/><path d="M130 1544 c-55 -24 -87 -52 -109 -100 -19 -40 -21 -57 -17 -157 3 -62 10 -137 16 -167 6 -30 13 -68 16 -83 10 -61 68 -226 104 -298 189 -375 511 -620 931 -709 124 -27 314 -36 356 -17 118 51 162 174 100 280 -39 67 -102 94 -232 101 -117 6 -145 10 -243 37 -375 100 -630 423 -658 834 -11 171 -15 183 -69 237 -50 50 -133 67 -195 42z"/></g></svg>