<?xml version="1.0" standalone="no"?>
<!DOCTYPE svg PUBLIC "-//W3C//DTD SVG 20010904//EN"
 "http://www.w3.org/TR/2001/REC-SVG-20010904/DTD/svg10.dtd">
<svg version="1.0" xmlns="http://www.w3.org/2000/svg"
 width="53.87" height="43.61" viewBox="0 0 600.000000 600.000000"
 preserveAspectRatio="xMidYMid meet">

<g transform="translate(0.000000,600.000000) scale(0.100000,-0.100000)"
fill="#000000" stroke="none">
<path d="M2645 5611 c-96 -23 -194 -56 -255 -86 -25 -12 -63 -28 -85 -35 -61
-19 -112 -47 -153 -84 -47 -42 -97 -67 -192 -96 -92 -27 -150 -78 -150 -131 0
-32 -6 -38 -103 -102 -56 -38 -120 -84 -141 -102 -46 -41 -42 -50 42 -97 51
-29 52 -31 38 -52 -39 -53 -67 -106 -88 -166 -12 -36 -24 -67 -25 -69 -2 -3
-17 12 -34 33 -17 20 -54 53 -83 72 l-51 34 -17 -22 c-9 -13 -29 -59 -43 -103
-35 -104 -37 -229 -6 -358 31 -129 37 -133 44 -26 5 89 22 186 36 201 3 4 7
-28 8 -70 3 -90 31 -210 67 -279 13 -26 48 -75 78 -107 l53 -60 -3 -110 c-4
-127 17 -241 66 -349 19 -42 31 -88 36 -140 6 -70 5 -77 -14 -89 -16 -10 -20
-23 -20 -68 0 -97 19 -176 80 -335 121 -318 273 -569 392 -650 99 -66 292
-124 422 -126 l41 0 -70 -28 c-38 -15 -81 -33 -94 -40 -13 -7 -42 -15 -65 -17
-111 -11 -212 -49 -290 -109 -35 -26 -58 -34 -127 -44 -174 -25 -382 -79 -552
-144 l-68 -26 7 52 c7 58 40 257 79 472 39 218 31 315 -26 315 -58 0 -166 -95
-213 -188 -55 -109 -101 -281 -131 -492 -32 -229 -70 -396 -85 -370 -18 34
-91 441 -114 645 -37 315 -57 376 -126 383 -42 4 -70 -22 -104 -97 -48 -106
-61 -176 -60 -311 1 -166 27 -306 118 -640 14 -52 26 -96 26 -97 0 0 -24 8
-53 19 -28 11 -80 21 -114 21 -73 2 -101 -14 -151 -89 -19 -27 -43 -52 -55
-55 -46 -13 -107 -50 -124 -76 -30 -46 -24 -190 12 -278 25 -63 28 -86 34
-236 7 -161 8 -169 39 -232 40 -81 129 -165 219 -208 35 -17 63 -33 63 -37 0
-4 -16 -33 -35 -65 -19 -32 -35 -60 -35 -63 0 -2 10 -4 23 -4 17 0 30 16 60
71 22 39 45 73 53 76 27 10 14 22 -44 38 -86 25 -148 63 -207 127 -72 78 -95
148 -95 296 l0 105 24 -22 c33 -31 69 -38 140 -29 34 5 93 8 133 8 40 -1 74 4
78 9 9 15 58 14 77 -1 9 -8 22 -51 32 -108 19 -103 44 -171 79 -208 20 -22 87
-62 103 -62 4 0 -18 27 -49 59 -63 66 -70 79 -98 200 -27 118 -45 143 -116
165 -83 26 -173 72 -211 109 -41 40 -74 108 -70 144 3 24 8 28 39 31 52 4 318
-42 424 -74 117 -35 210 -37 278 -5 79 39 76 51 -7 26 -76 -23 -154 -19 -258
15 -75 23 -194 50 -229 50 -17 0 -17 36 2 96 27 87 21 130 -7 55 l-21 -54 -9
34 c-7 29 -9 23 -12 -45 l-3 -78 -32 6 c-18 4 -64 9 -103 13 l-72 6 -12 58
c-12 55 -11 60 14 102 14 25 40 57 58 72 28 24 38 26 79 21 76 -10 149 -35
149 -51 0 -16 18 -19 37 -7 19 12 -9 164 -80 432 -58 222 -70 353 -43 492 27
142 82 249 120 235 33 -13 53 -103 91 -425 26 -222 57 -393 99 -547 l25 -90
-30 -28 c-40 -37 -32 -43 23 -16 40 19 47 28 70 88 38 96 45 126 88 383 42
250 72 371 120 471 47 100 123 177 175 177 25 0 19 -89 -21 -302 -63 -341 -73
-414 -85 -630 l-12 -213 34 -170 c29 -148 33 -190 33 -320 -1 -196 -14 -293
-78 -562 l-53 -223 564 0 563 0 -5 22 c-24 108 -54 423 -62 656 -7 209 -6 212
45 212 40 0 131 38 195 80 l62 42 65 -16 c81 -19 224 -36 312 -36 l66 0 27
-47 c31 -57 30 -71 -21 -186 -19 -44 -44 -117 -54 -161 -20 -86 -64 -374 -76
-493 l-7 -73 1467 0 1466 0 0 103 c0 128 -17 430 -30 562 -15 142 -55 368 -80
448 -18 59 -27 72 -73 108 -60 48 -415 226 -640 322 -87 37 -226 90 -310 118
-84 29 -159 58 -168 66 -11 9 -18 36 -22 79 -13 172 -171 336 -374 389 -32 8
-71 15 -89 15 -30 0 -31 2 -38 53 -13 106 -19 294 -9 300 5 3 27 2 49 -3 21
-5 49 -7 61 -4 22 6 22 6 -8 36 -16 17 -28 32 -26 34 2 2 23 -3 47 -11 90 -32
219 -7 323 62 71 47 82 67 29 56 -124 -26 -197 14 -216 118 -6 36 -5 38 41 64
73 43 173 151 215 231 40 77 68 174 68 241 0 23 5 45 10 48 27 17 118 229 157
365 17 59 21 64 47 65 20 0 35 9 50 28 19 26 21 40 19 150 -3 162 -19 342 -33
367 -9 16 -8 25 0 35 10 12 2 29 -41 87 -69 95 -179 210 -251 263 l-57 43 21
18 c22 20 134 162 162 205 l17 26 -68 40 c-37 23 -102 57 -143 78 -41 20 -109
63 -150 94 -202 155 -405 248 -660 302 -108 24 -108 24 -575 18 -38 0 -128 2
-200 5 -106 4 -145 2 -210 -13z m-907 -550 c23 -14 10 -46 -18 -46 -16 0 -26
6 -28 19 -3 16 12 36 28 36 3 0 11 -4 18 -9z m2382 -36 c16 -19 -3 -45 -32
-45 -27 0 -35 30 -13 46 24 18 30 17 45 -1z m-1885 -595 c24 -27 18 -28 -42
-7 -47 16 -67 18 -106 10 -43 -9 -46 -8 -35 7 7 10 33 45 56 80 l44 62 34 -68
c18 -37 40 -74 49 -84z m-40 -59 c22 -10 63 -37 92 -60 56 -44 68 -50 59 -26
-9 25 3 18 72 -43 37 -33 87 -73 112 -89 207 -139 569 -234 885 -232 134 1
156 10 75 32 -116 33 -207 89 -285 176 l-40 44 60 -40 c141 -95 315 -163 533
-207 l117 -23 11 -39 c9 -33 3 -82 -35 -314 -52 -313 -30 -262 -193 -444 -49
-54 -88 -102 -88 -106 0 -5 -152 42 -337 105 -386 130 -583 186 -739 210 -188
30 -547 8 -666 -40 -13 -5 -19 2 -27 32 -24 86 -33 208 -27 376 3 95 9 256 12
358 l6 186 54 32 c29 17 76 51 105 76 28 24 61 46 73 48 55 11 133 5 171 -12z
m2199 -785 c97 -41 137 -160 101 -301 -34 -129 -117 -242 -240 -324 -90 -60
-161 -88 -268 -104 l-81 -13 -52 -84 c-65 -105 -140 -190 -208 -236 -28 -18
-54 -34 -58 -34 -18 0 -70 127 -75 181 -7 70 18 189 55 262 24 48 196 254 214
256 7 1 -12 -76 -31 -123 -7 -16 -25 -49 -41 -73 -33 -48 -32 -50 13 -27 76
40 242 225 312 349 56 98 179 258 210 271 40 17 108 17 149 0z m-2624 -328 c0
-4 -9 -8 -20 -8 -15 0 -20 7 -20 27 0 25 0 26 20 8 11 -10 20 -22 20 -27z
m2156 -466 c-18 -16 -18 -16 -6 6 6 13 14 21 18 18 3 -4 -2 -14 -12 -24z m30
-20 c-38 -106 -47 -347 -21 -537 9 -60 18 -130 21 -155 l6 -45 -125 -112 -124
-111 -99 1 c-88 1 -108 -3 -174 -29 -144 -58 -304 -194 -379 -323 -45 -76 -91
-204 -91 -250 l0 -31 -77 1 c-84 1 -179 12 -189 21 -3 4 3 31 14 60 39 104 58
274 55 483 -1 80 -22 242 -39 302 -5 19 0 22 53 33 153 30 475 146 653 235
125 63 241 144 328 228 62 60 173 214 187 257 4 12 9 20 11 17 2 -2 -2 -22
-10 -45z m259 -661 c27 -14 75 -51 107 -83 127 -123 150 -280 61 -410 -90
-132 -346 -454 -446 -560 -119 -129 -135 -138 -240 -138 -129 0 -207 84 -207
223 0 52 6 76 32 127 58 117 134 171 250 178 l67 4 63 67 c159 169 312 394
333 489 8 38 -8 61 -80 115 -31 23 -35 28 -15 22 14 -4 47 -19 75 -34z m-1950
-237 c-142 -95 -224 -187 -294 -333 -54 -111 -75 -209 -69 -319 3 -48 8 -96
12 -107 8 -20 7 -20 -8 0 -22 26 -36 77 -43 152 -19 204 165 522 352 609 71
34 101 32 50 -2z m468 -102 l4 -53 -24 43 c-14 24 -31 51 -40 60 -17 19 -10
36 21 47 24 10 31 -7 39 -97z m791 -40 c-209 -111 -355 -288 -409 -497 -40
-155 2 -334 100 -424 48 -44 41 -54 -15 -20 -59 35 -81 61 -115 132 -99 205
-18 480 204 690 73 69 116 96 211 134 87 35 102 26 24 -15z m-939 -25 c59 -33
85 -90 85 -188 0 -169 -60 -329 -161 -430 -70 -70 -125 -93 -209 -87 -106 8
-152 65 -158 199 -12 242 185 525 368 528 19 0 53 -9 75 -22z m-2233 -614 c9
-43 14 -94 12 -113 -4 -27 4 -53 35 -113 23 -44 41 -86 41 -93 0 -8 7 -28 15
-44 l15 -29 -46 -7 c-62 -9 -87 5 -132 75 -52 80 -77 160 -77 247 0 58 4 76
20 94 17 19 80 58 95 60 3 0 13 -35 22 -77z m2505 50 l101 -6 7 -46 c3 -25 9
-57 12 -70 l6 -24 -144 6 c-127 6 -234 22 -241 37 -1 3 15 31 37 63 39 57 41
58 80 52 22 -3 86 -8 142 -12z m-2248 -439 c2 -2 -15 -4 -38 -4 -35 0 -48 6
-72 31 -16 17 -29 35 -29 39 0 7 126 -53 139 -66z"/>
<path d="M1889 3985 c-36 -18 -71 -40 -78 -49 -12 -14 -10 -16 13 -16 15 0 28
-6 31 -12 2 -7 13 -46 25 -85 12 -40 24 -73 27 -73 3 0 2 36 -1 80 l-7 80 29
0 c15 0 57 -17 93 -39 l64 -39 6 -118 c10 -204 57 -261 139 -167 28 32 31 41
28 88 -2 42 0 51 10 43 17 -14 16 6 -2 35 -8 12 -17 40 -21 62 -7 35 -9 37
-14 16 -6 -22 -10 -19 -51 37 -89 119 -171 193 -213 192 -7 -1 -42 -16 -78
-35z m251 -245 c0 -11 -4 -20 -10 -20 -5 0 -10 9 -10 20 0 11 5 20 10 20 6 0
10 -9 10 -20z"/>
<path d="M2115 3956 c33 -20 79 -58 102 -84 47 -52 57 -47 19 9 -28 40 -105
94 -151 104 -22 6 -15 -2 30 -29z"/>
<path d="M3075 3760 c-77 -9 -165 -37 -196 -62 -13 -11 -18 -17 -11 -13 16 9
15 1 -7 -43 -16 -32 -29 -41 -78 -57 l-58 -20 48 -3 c26 -2 47 -5 47 -8 0 -3
-7 -16 -16 -29 -22 -34 -11 -31 42 10 53 40 92 47 224 43 l95 -3 6 -80 c10
-125 47 -195 102 -195 69 0 135 88 145 193 l5 59 51 -7 c28 -3 55 -10 60 -15
10 -10 -32 -71 -78 -112 -58 -51 -3 -30 96 38 l98 65 57 -6 58 -6 -70 47 c-38
25 -104 63 -145 83 -69 33 -83 36 -180 40 -145 4 -372 -18 -463 -45 -16 -5
-18 -1 -15 28 3 30 8 35 58 52 79 27 234 32 355 12 108 -19 133 -15 56 8 -88
26 -202 36 -286 26z m160 -230 c11 -17 -5 -32 -21 -19 -7 6 -11 15 -8 20 7 12
21 11 29 -1z"/>
<path d="M4315 3496 c-78 -35 -160 -160 -220 -339 -45 -134 -29 -144 22 -12
39 104 83 186 95 179 17 -11 38 -71 38 -108 0 -25 -13 -54 -45 -101 -44 -64
-44 -65 -16 -51 97 51 128 189 56 256 -14 13 -25 29 -25 35 0 6 16 30 36 53
86 100 161 93 172 -16 5 -58 -16 -140 -59 -224 -35 -69 -21 -77 21 -12 42 67
64 139 65 215 0 74 -15 111 -52 128 -31 14 -51 13 -88 -3z"/>
<path d="M2478 1620 c-166 -50 -298 -325 -228 -477 52 -115 203 -34 302 162
26 50 32 75 36 152 5 105 -7 149 -45 164 -28 10 -28 10 -65 -1z"/>
</g>
</svg>
